<svg width="4943" height="1563" viewBox="0 0 4943 1563" fill="none" xmlns="http://www.w3.org/2000/svg">
<path d="M516 1495.87L689 1495.87" stroke="#141C4D" stroke-width="100" stroke-linecap="round"/>
<path d="M435 1345.87L689 1345.87" stroke="#141C4D" stroke-width="100" stroke-linecap="round"/>
<path d="M193 1199.87L553 1199.87" stroke="#141C4D" stroke-width="100" stroke-linecap="round"/>
<path d="M243 1052.87L689 1052.87" stroke="#141C4D" stroke-width="100" stroke-linecap="round"/>
<path d="M50 904.871L689 904.871" stroke="#141C4D" stroke-width="100" stroke-linecap="round"/>
<path d="M53 757.871L553 757.871" stroke="#141C4D" stroke-width="100" stroke-linecap="round"/>
<path d="M243 612.871L687 612.871" stroke="#141C4D" stroke-width="100" stroke-linecap="round"/>
<path d="M193 464.871L553 464.871" stroke="#141C4D" stroke-width="100" stroke-linecap="round"/>
<path d="M440 318.871L686 318.871" stroke="#141C4D" stroke-width="100" stroke-linecap="round"/>
<path d="M519 170.871L687 170.871" stroke="#141C4D" stroke-width="100" stroke-linecap="round"/>
<path d="M307 1345.87H308" stroke="#141C4D" stroke-width="100" stroke-linecap="round"/>
<path d="M688 1199.87H689" stroke="#141C4D" stroke-width="100" stroke-linecap="round"/>
<path d="M116 1052.87H117" stroke="#141C4D" stroke-width="100" stroke-linecap="round"/>
<path d="M687 757.871H688" stroke="#141C4D" stroke-width="100" stroke-linecap="round"/>
<path d="M686 464.871H687" stroke="#141C4D" stroke-width="100" stroke-linecap="round"/>
<path d="M303 318.871H304" stroke="#141C4D" stroke-width="100" stroke-linecap="round"/>
<path d="M115 612.871H116" stroke="#141C4D" stroke-width="100" stroke-linecap="round"/>
<path d="M1135 278.371C1098.5 232.371 1044.94 189.191 1034.5 182.871C980 149.871 946.5 157.496 928.5 158.371C854.5 171.371 830.833 238.538 830.5 271.371L831.037 683.371M971 384.371C971.5 381.871 998.5 285.371 1086.5 278.371C1099.5 275.871 1140 274.871 1205.5 305.871C1267.9 342.271 1300.83 407.705 1309.5 435.872C1318.5 455.872 1333.8 517.472 1323 603.872M1160 1291.87C1159.14 1315.9 1154.88 1337.5 1148.26 1356.87M1284.5 797.371C1262.83 816.705 1219.4 848.971 1221 903.371C1223 971.371 1291 1051.87 1297.5 1061.37C1304 1070.87 1352.5 1112.37 1338.5 1206.87C1324.5 1301.37 1246 1333.87 1233.5 1338.87C1223.5 1342.87 1172.51 1352.54 1148.26 1356.87M1148.26 1356.87C1116.32 1450.36 1029.56 1491.59 1006.5 1499.87C904.5 1541.07 837.5 1475.87 832 1422.87L831.654 1157.37M831.573 1095.37L831.654 1157.37M831.573 1095.37C838.977 1089.04 853.064 1078.45 865 1069.87M831.573 1095.37L831.085 720.371M1119.5 1100.37C1043.5 1032.87 974 1031.87 937 1034.37C921.897 1035.39 902.695 1044.94 883.5 1057.25M831.654 1157.37C832.305 1145.53 839.724 1116.46 854.863 1087.37M865 1069.87C861.3 1075.61 857.924 1081.49 854.863 1087.37M865 1069.87C871.073 1065.51 877.286 1061.23 883.5 1057.25M854.863 1087.37C862.909 1078.28 879.9 1059.52 883.5 1057.25M831.037 683.371L831.085 720.371M831.037 683.371C838.798 672.501 850.032 657.862 863.47 641.871M1160.5 520.371C1125 513.705 1039.7 507.471 982.5 535.871C941.956 556.002 896.182 602.945 863.47 641.871M831.085 720.371C835.703 701.294 848.646 658.886 863.47 641.871" stroke="#141C4D" stroke-width="100" stroke-linecap="round"/>
<path d="M1047.5 906.371C1045.67 871.871 1053.2 788.671 1098 731.871C1111.05 715.32 1122.51 702.056 1132.63 691.371M1339 1105.87C1342.61 1105.87 1390.45 1059.28 1425.83 1001.37C1444.31 971.116 1460.9 910.772 1464.5 879.371C1471.46 818.688 1468.21 792.686 1454 746.371M1385 647.584C1369.64 637.288 1335.73 623.136 1293.5 624.871C1265.21 626.034 1247.59 628.323 1235.5 631.039M1385 647.584C1400.36 657.88 1405.46 662.703 1416 673.871C1424.42 682.796 1446.79 722.852 1454 746.371M1385 647.584C1397.28 654.68 1434.13 695.971 1454 746.371M1132.63 691.371C1165.95 656.22 1184.93 648.973 1199.5 644.371C1211.14 640.696 1216.4 635.333 1235.5 631.039M1132.63 691.371C1145.92 676.983 1185.1 644.774 1235.5 631.039" stroke="#141C4D" stroke-width="100" stroke-linecap="round"/>
<path d="M1901.8 885.6C1860.73 885.6 1823.93 878.933 1791.4 865.6C1758.87 852.267 1732.73 832.533 1713 806.4C1693.8 780.267 1683.67 748.8 1682.6 712H1828.2C1830.33 732.8 1837.53 748.8 1849.8 760C1862.07 770.667 1878.07 776 1897.8 776C1918.07 776 1934.07 771.467 1945.8 762.4C1957.53 752.8 1963.4 739.733 1963.4 723.2C1963.4 709.333 1958.6 697.867 1949 688.8C1939.93 679.733 1928.47 672.267 1914.6 666.4C1901.27 660.533 1882.07 653.867 1857 646.4C1820.73 635.2 1791.13 624 1768.2 612.8C1745.27 601.6 1725.53 585.067 1709 563.2C1692.47 541.333 1684.2 512.8 1684.2 477.6C1684.2 425.333 1703.13 384.533 1741 355.2C1778.87 325.333 1828.2 310.4 1889 310.4C1950.87 310.4 2000.73 325.333 2038.6 355.2C2076.47 384.533 2096.73 425.6 2099.4 478.4H1951.4C1950.33 460.267 1943.67 446.133 1931.4 436C1919.13 425.333 1903.4 420 1884.2 420C1867.67 420 1854.33 424.533 1844.2 433.6C1834.07 442.133 1829 454.667 1829 471.2C1829 489.333 1837.53 503.467 1854.6 513.6C1871.67 523.733 1898.33 534.667 1934.6 546.4C1970.87 558.667 2000.2 570.4 2022.6 581.6C2045.53 592.8 2065.27 609.067 2081.8 630.4C2098.33 651.733 2106.6 679.2 2106.6 712.8C2106.6 744.8 2098.33 773.867 2081.8 800C2065.8 826.133 2042.33 846.933 2011.4 862.4C1980.47 877.867 1943.93 885.6 1901.8 885.6ZM2259.59 387.2C2235.59 387.2 2215.85 380.267 2200.39 366.4C2185.45 352 2177.99 334.4 2177.99 313.6C2177.99 292.267 2185.45 274.667 2200.39 260.8C2215.85 246.4 2235.59 239.2 2259.59 239.2C2283.05 239.2 2302.25 246.4 2317.19 260.8C2332.65 274.667 2340.39 292.267 2340.39 313.6C2340.39 334.4 2332.65 352 2317.19 366.4C2302.25 380.267 2283.05 387.2 2259.59 387.2ZM2327.59 433.6V880H2190.79V433.6H2327.59ZM2698.73 428.8C2750.99 428.8 2792.59 445.867 2823.53 480C2854.99 513.6 2870.73 560 2870.73 619.2V880H2734.73V637.6C2734.73 607.733 2726.99 584.533 2711.53 568C2696.06 551.467 2675.26 543.2 2649.13 543.2C2622.99 543.2 2602.19 551.467 2586.73 568C2571.26 584.533 2563.53 607.733 2563.53 637.6V880H2426.73V433.6H2563.53V492.8C2577.39 473.067 2596.06 457.6 2619.53 446.4C2642.99 434.667 2669.39 428.8 2698.73 428.8ZM2938.59 656C2938.59 610.133 2947.12 569.867 2964.19 535.2C2981.79 500.533 3005.52 473.867 3035.39 455.2C3065.25 436.533 3098.59 427.2 3135.39 427.2C3166.85 427.2 3194.32 433.6 3217.79 446.4C3241.79 459.2 3260.19 476 3272.99 496.8V433.6H3409.79V880H3272.99V816.8C3259.65 837.6 3240.99 854.4 3216.99 867.2C3193.52 880 3166.05 886.4 3134.59 886.4C3098.32 886.4 3065.25 877.067 3035.39 858.4C3005.52 839.2 2981.79 812.267 2964.19 777.6C2947.12 742.4 2938.59 701.867 2938.59 656ZM3272.99 656.8C3272.99 622.667 3263.39 595.733 3244.19 576C3225.52 556.267 3202.59 546.4 3175.39 546.4C3148.19 546.4 3124.99 556.267 3105.79 576C3087.12 595.2 3077.79 621.867 3077.79 656C3077.79 690.133 3087.12 717.333 3105.79 737.6C3124.99 757.333 3148.19 767.2 3175.39 767.2C3202.59 767.2 3225.52 757.333 3244.19 737.6C3263.39 717.867 3272.99 690.933 3272.99 656.8ZM3645.56 496.8C3658.89 476 3677.29 459.2 3700.76 446.4C3724.22 433.6 3751.69 427.2 3783.16 427.2C3819.96 427.2 3853.29 436.533 3883.16 455.2C3913.02 473.867 3936.49 500.533 3953.56 535.2C3971.16 569.867 3979.96 610.133 3979.96 656C3979.96 701.867 3971.16 742.4 3953.56 777.6C3936.49 812.267 3913.02 839.2 3883.16 858.4C3853.29 877.067 3819.96 886.4 3783.16 886.4C3752.22 886.4 3724.76 880 3700.76 867.2C3677.29 854.4 3658.89 837.867 3645.56 817.6V1092.8H3508.76V433.6H3645.56V496.8ZM3840.76 656C3840.76 621.867 3831.16 595.2 3811.96 576C3793.29 556.267 3770.09 546.4 3742.36 546.4C3715.16 546.4 3691.96 556.267 3672.76 576C3654.09 595.733 3644.76 622.667 3644.76 656.8C3644.76 690.933 3654.09 717.867 3672.76 737.6C3691.96 757.333 3715.16 767.2 3742.36 767.2C3769.56 767.2 3792.76 757.333 3811.96 737.6C3831.16 717.333 3840.76 690.133 3840.76 656ZM4233.33 886.4C4194.39 886.4 4159.73 879.733 4129.33 866.4C4098.93 853.067 4074.93 834.933 4057.33 812C4039.73 788.533 4029.86 762.4 4027.73 733.6H4162.93C4164.53 749.067 4171.73 761.6 4184.53 771.2C4197.33 780.8 4213.06 785.6 4231.73 785.6C4248.79 785.6 4261.86 782.4 4270.93 776C4280.53 769.067 4285.33 760.267 4285.33 749.6C4285.33 736.8 4278.66 727.467 4265.33 721.6C4251.99 715.2 4230.39 708.267 4200.53 700.8C4168.53 693.333 4141.86 685.6 4120.53 677.6C4099.19 669.067 4080.79 656 4065.33 638.4C4049.86 620.267 4042.13 596 4042.13 565.6C4042.13 540 4049.06 516.8 4062.93 496C4077.33 474.667 4098.13 457.867 4125.33 445.6C4153.06 433.333 4185.86 427.2 4223.73 427.2C4279.73 427.2 4323.73 441.067 4355.73 468.8C4388.26 496.533 4406.93 533.333 4411.73 579.2H4285.33C4283.19 563.733 4276.26 551.467 4264.53 542.4C4253.33 533.333 4238.39 528.8 4219.73 528.8C4203.73 528.8 4191.46 532 4182.93 538.4C4174.39 544.267 4170.13 552.533 4170.13 563.2C4170.13 576 4176.79 585.6 4190.13 592C4203.99 598.4 4225.33 604.8 4254.13 611.2C4287.19 619.733 4314.13 628.267 4334.93 636.8C4355.73 644.8 4373.86 658.133 4389.33 676.8C4405.33 694.933 4413.59 719.467 4414.13 750.4C4414.13 776.533 4406.66 800 4391.73 820.8C4377.33 841.067 4356.26 857.067 4328.53 868.8C4301.33 880.533 4269.59 886.4 4233.33 886.4ZM4918.62 649.6C4918.62 662.4 4917.82 675.733 4916.22 689.6H4606.62C4608.75 717.333 4617.55 738.667 4633.02 753.6C4649.02 768 4668.49 775.2 4691.42 775.2C4725.55 775.2 4749.29 760.8 4762.62 732H4908.22C4900.75 761.333 4887.15 787.733 4867.42 811.2C4848.22 834.667 4823.95 853.067 4794.62 866.4C4765.29 879.733 4732.49 886.4 4696.22 886.4C4652.49 886.4 4613.55 877.067 4579.42 858.4C4545.29 839.733 4518.62 813.067 4499.42 778.4C4480.22 743.733 4470.62 703.2 4470.62 656.8C4470.62 610.4 4479.95 569.867 4498.62 535.2C4517.82 500.533 4544.49 473.867 4578.62 455.2C4612.75 436.533 4651.95 427.2 4696.22 427.2C4739.42 427.2 4777.82 436.267 4811.42 454.4C4845.02 472.533 4871.15 498.4 4889.82 532C4909.02 565.6 4918.62 604.8 4918.62 649.6ZM4778.62 613.6C4778.62 590.133 4770.62 571.467 4754.62 557.6C4738.62 543.733 4718.62 536.8 4694.62 536.8C4671.69 536.8 4652.22 543.467 4636.22 556.8C4620.75 570.133 4611.15 589.067 4607.42 613.6H4778.62Z" fill="#141C4D"/>
<path d="M2040.95 1430.98C2023.79 1430.98 2007.29 1428.23 1991.45 1422.73C1975.83 1417.01 1963.73 1409.75 1955.15 1400.95L1964.72 1382.14C1972.86 1390.06 1983.75 1396.77 1997.39 1402.27C2011.25 1407.55 2025.77 1410.19 2040.95 1410.19C2055.47 1410.19 2067.24 1408.43 2076.26 1404.91C2085.5 1401.17 2092.21 1396.22 2096.39 1390.06C2100.79 1383.9 2102.99 1377.08 2102.99 1369.6C2102.99 1360.58 2100.35 1353.32 2095.07 1347.82C2090.01 1342.32 2083.3 1338.03 2074.94 1334.95C2066.58 1331.65 2057.34 1328.79 2047.22 1326.37C2037.1 1323.95 2026.98 1321.42 2016.86 1318.78C2006.74 1315.92 1997.39 1312.18 1988.81 1307.56C1980.45 1302.94 1973.63 1296.89 1968.35 1289.41C1963.29 1281.71 1960.76 1271.7 1960.76 1259.38C1960.76 1247.94 1963.73 1237.49 1969.67 1228.03C1975.83 1218.35 1985.18 1210.65 1997.72 1204.93C2010.26 1198.99 2026.32 1196.02 2045.9 1196.02C2058.88 1196.02 2071.75 1197.89 2084.51 1201.63C2097.27 1205.15 2108.27 1210.1 2117.51 1216.48L2109.26 1235.95C2099.36 1229.35 2088.8 1224.51 2077.58 1221.43C2066.58 1218.35 2055.91 1216.81 2045.57 1216.81C2031.71 1216.81 2020.27 1218.68 2011.25 1222.42C2002.23 1226.16 1995.52 1231.22 1991.12 1237.6C1986.94 1243.76 1984.85 1250.8 1984.85 1258.72C1984.85 1267.74 1987.38 1275 1992.44 1280.5C1997.72 1286 2004.54 1290.29 2012.9 1293.37C2021.48 1296.45 2030.83 1299.2 2040.95 1301.62C2051.07 1304.04 2061.08 1306.68 2070.98 1309.54C2081.1 1312.4 2090.34 1316.14 2098.7 1320.76C2107.28 1325.16 2114.1 1331.1 2119.16 1338.58C2124.44 1346.06 2127.08 1355.85 2127.08 1367.95C2127.08 1379.17 2124 1389.62 2117.84 1399.3C2111.68 1408.76 2102.22 1416.46 2089.46 1422.4C2076.92 1428.12 2060.75 1430.98 2040.95 1430.98ZM2291.17 1430.98C2273.79 1430.98 2257.62 1428.12 2242.66 1422.4C2227.92 1416.46 2215.05 1408.21 2204.05 1397.65C2193.27 1386.87 2184.8 1374.44 2178.64 1360.36C2172.7 1346.06 2169.73 1330.44 2169.73 1313.5C2169.73 1296.56 2172.7 1281.05 2178.64 1266.97C2184.8 1252.67 2193.27 1240.24 2204.05 1229.68C2215.05 1218.9 2227.92 1210.65 2242.66 1204.93C2257.4 1198.99 2273.57 1196.02 2291.17 1196.02C2308.55 1196.02 2324.61 1198.99 2339.35 1204.93C2354.09 1210.65 2366.85 1218.79 2377.63 1229.35C2388.63 1239.91 2397.1 1252.34 2403.04 1266.64C2409.2 1280.94 2412.28 1296.56 2412.28 1313.5C2412.28 1330.44 2409.2 1346.06 2403.04 1360.36C2397.1 1374.66 2388.63 1387.09 2377.63 1397.65C2366.85 1408.21 2354.09 1416.46 2339.35 1422.4C2324.61 1428.12 2308.55 1430.98 2291.17 1430.98ZM2291.17 1409.2C2305.03 1409.2 2317.79 1406.89 2329.45 1402.27C2341.33 1397.43 2351.56 1390.72 2360.14 1382.14C2368.94 1373.34 2375.76 1363.22 2380.6 1351.78C2385.44 1340.12 2387.86 1327.36 2387.86 1313.5C2387.86 1299.64 2385.44 1286.99 2380.6 1275.55C2375.76 1263.89 2368.94 1253.77 2360.14 1245.19C2351.56 1236.39 2341.33 1229.68 2329.45 1225.06C2317.79 1220.22 2305.03 1217.8 2291.17 1217.8C2277.31 1217.8 2264.44 1220.22 2252.56 1225.06C2240.68 1229.68 2230.34 1236.39 2221.54 1245.19C2212.96 1253.77 2206.14 1263.89 2201.08 1275.55C2196.24 1286.99 2193.82 1299.64 2193.82 1313.5C2193.82 1327.14 2196.24 1339.79 2201.08 1351.45C2206.14 1363.11 2212.96 1373.34 2221.54 1382.14C2230.34 1390.72 2240.68 1397.43 2252.56 1402.27C2264.44 1406.89 2277.31 1409.2 2291.17 1409.2ZM2476.92 1429V1198H2501.34V1407.88H2630.7V1429H2476.92ZM2770.01 1430.98C2740.53 1430.98 2717.32 1422.51 2700.38 1405.57C2683.44 1388.63 2674.97 1363.55 2674.97 1330.33V1198H2699.39V1329.34C2699.39 1356.62 2705.55 1376.75 2717.87 1389.73C2730.19 1402.71 2747.57 1409.2 2770.01 1409.2C2792.67 1409.2 2810.16 1402.71 2822.48 1389.73C2834.8 1376.75 2840.96 1356.62 2840.96 1329.34V1198H2864.72V1330.33C2864.72 1363.55 2856.25 1388.63 2839.31 1405.57C2822.59 1422.51 2799.49 1430.98 2770.01 1430.98ZM3048.53 1430.98C3031.15 1430.98 3015.09 1428.12 3000.35 1422.4C2985.61 1416.46 2972.85 1408.21 2962.07 1397.65C2951.29 1387.09 2942.82 1374.66 2936.66 1360.36C2930.72 1346.06 2927.75 1330.44 2927.75 1313.5C2927.75 1296.56 2930.72 1280.94 2936.66 1266.64C2942.82 1252.34 2951.29 1239.91 2962.07 1229.35C2973.07 1218.79 2985.94 1210.65 3000.68 1204.93C3015.42 1198.99 3031.48 1196.02 3048.86 1196.02C3065.58 1196.02 3081.31 1198.88 3096.05 1204.6C3110.79 1210.1 3123.22 1218.46 3133.34 1229.68L3117.83 1245.19C3108.37 1235.51 3097.92 1228.58 3086.48 1224.4C3075.04 1220 3062.72 1217.8 3049.52 1217.8C3035.66 1217.8 3022.79 1220.22 3010.91 1225.06C2999.03 1229.68 2988.69 1236.39 2979.89 1245.19C2971.09 1253.77 2964.16 1263.89 2959.1 1275.55C2954.26 1286.99 2951.84 1299.64 2951.84 1313.5C2951.84 1327.36 2954.26 1340.12 2959.1 1351.78C2964.16 1363.22 2971.09 1373.34 2979.89 1382.14C2988.69 1390.72 2999.03 1397.43 3010.91 1402.27C3022.79 1406.89 3035.66 1409.2 3049.52 1409.2C3062.72 1409.2 3075.04 1407 3086.48 1402.6C3097.92 1398.2 3108.37 1391.16 3117.83 1381.48L3133.34 1396.99C3123.22 1408.21 3110.79 1416.68 3096.05 1422.4C3081.31 1428.12 3065.47 1430.98 3048.53 1430.98ZM3036.65 1501.6C3031.15 1501.6 3026.09 1500.94 3021.47 1499.62C3017.07 1498.3 3012.89 1496.43 3008.93 1494.01L3014.54 1481.47C3017.84 1483.45 3021.25 1484.99 3024.77 1486.09C3028.51 1487.19 3032.36 1487.74 3036.32 1487.74C3042.92 1487.74 3047.98 1486.31 3051.5 1483.45C3055.02 1480.81 3056.78 1477.07 3056.78 1472.23C3056.78 1467.83 3055.02 1464.2 3051.5 1461.34C3048.2 1458.48 3043.14 1457.05 3036.32 1457.05H3028.73L3036.65 1427.02H3050.84L3045.89 1446.16C3054.91 1446.82 3061.84 1449.57 3066.68 1454.41C3071.52 1459.47 3073.94 1465.63 3073.94 1472.89C3073.94 1481.69 3070.42 1488.62 3063.38 1493.68C3056.56 1498.96 3047.65 1501.6 3036.65 1501.6ZM3291.44 1430.98C3274.06 1430.98 3257.89 1428.12 3242.93 1422.4C3228.19 1416.46 3215.32 1408.21 3204.32 1397.65C3193.54 1386.87 3185.07 1374.44 3178.91 1360.36C3172.97 1346.06 3170 1330.44 3170 1313.5C3170 1296.56 3172.97 1281.05 3178.91 1266.97C3185.07 1252.67 3193.54 1240.24 3204.32 1229.68C3215.32 1218.9 3228.19 1210.65 3242.93 1204.93C3257.67 1198.99 3273.84 1196.02 3291.44 1196.02C3308.82 1196.02 3324.88 1198.99 3339.62 1204.93C3354.36 1210.65 3367.12 1218.79 3377.9 1229.35C3388.9 1239.91 3397.37 1252.34 3403.31 1266.64C3409.47 1280.94 3412.55 1296.56 3412.55 1313.5C3412.55 1330.44 3409.47 1346.06 3403.31 1360.36C3397.37 1374.66 3388.9 1387.09 3377.9 1397.65C3367.12 1408.21 3354.36 1416.46 3339.62 1422.4C3324.88 1428.12 3308.82 1430.98 3291.44 1430.98ZM3291.44 1409.2C3305.3 1409.2 3318.06 1406.89 3329.72 1402.27C3341.6 1397.43 3351.83 1390.72 3360.41 1382.14C3369.21 1373.34 3376.03 1363.22 3380.87 1351.78C3385.71 1340.12 3388.13 1327.36 3388.13 1313.5C3388.13 1299.64 3385.71 1286.99 3380.87 1275.55C3376.03 1263.89 3369.21 1253.77 3360.41 1245.19C3351.83 1236.39 3341.6 1229.68 3329.72 1225.06C3318.06 1220.22 3305.3 1217.8 3291.44 1217.8C3277.58 1217.8 3264.71 1220.22 3252.83 1225.06C3240.95 1229.68 3230.61 1236.39 3221.81 1245.19C3213.23 1253.77 3206.41 1263.89 3201.35 1275.55C3196.51 1286.99 3194.09 1299.64 3194.09 1313.5C3194.09 1327.14 3196.51 1339.79 3201.35 1351.45C3206.41 1363.11 3213.23 1373.34 3221.81 1382.14C3230.61 1390.72 3240.95 1397.43 3252.83 1402.27C3264.71 1406.89 3277.58 1409.2 3291.44 1409.2ZM3313.88 1177.21C3308.82 1177.21 3304.31 1176.11 3300.35 1173.91C3296.39 1171.71 3292.76 1169.18 3289.46 1166.32C3286.38 1163.24 3283.3 1160.6 3280.22 1158.4C3277.14 1155.98 3273.95 1154.77 3270.65 1154.77C3265.59 1154.77 3261.52 1156.64 3258.44 1160.38C3255.58 1164.12 3253.93 1169.29 3253.49 1175.89H3239.3C3239.74 1164.89 3242.6 1156.09 3247.88 1149.49C3253.38 1142.89 3260.42 1139.59 3269 1139.59C3274.06 1139.59 3278.57 1140.8 3282.53 1143.22C3286.71 1145.42 3290.34 1148.06 3293.42 1151.14C3296.72 1154 3299.8 1156.53 3302.66 1158.73C3305.74 1160.93 3308.93 1162.03 3312.23 1162.03C3317.29 1162.03 3321.36 1160.27 3324.44 1156.75C3327.52 1153.01 3329.17 1147.95 3329.39 1141.57H3343.58C3343.36 1152.13 3340.5 1160.71 3335 1167.31C3329.5 1173.91 3322.46 1177.21 3313.88 1177.21ZM3498.97 1301.29H3621.07V1322.08H3498.97V1301.29ZM3501.61 1407.88H3640.54V1429H3477.19V1198H3635.59V1219.12H3501.61V1407.88ZM3771.53 1430.98C3754.37 1430.98 3737.87 1428.23 3722.03 1422.73C3706.41 1417.01 3694.31 1409.75 3685.73 1400.95L3695.3 1382.14C3703.44 1390.06 3714.33 1396.77 3727.97 1402.27C3741.83 1407.55 3756.35 1410.19 3771.53 1410.19C3786.05 1410.19 3797.82 1408.43 3806.84 1404.91C3816.08 1401.17 3822.79 1396.22 3826.97 1390.06C3831.37 1383.9 3833.57 1377.08 3833.57 1369.6C3833.57 1360.58 3830.93 1353.32 3825.65 1347.82C3820.59 1342.32 3813.88 1338.03 3805.52 1334.95C3797.16 1331.65 3787.92 1328.79 3777.8 1326.37C3767.68 1323.95 3757.56 1321.42 3747.44 1318.78C3737.32 1315.92 3727.97 1312.18 3719.39 1307.56C3711.03 1302.94 3704.21 1296.89 3698.93 1289.41C3693.87 1281.71 3691.34 1271.7 3691.34 1259.38C3691.34 1247.94 3694.31 1237.49 3700.25 1228.03C3706.41 1218.35 3715.76 1210.65 3728.3 1204.93C3740.84 1198.99 3756.9 1196.02 3776.48 1196.02C3789.46 1196.02 3802.33 1197.89 3815.09 1201.63C3827.85 1205.15 3838.85 1210.1 3848.09 1216.48L3839.84 1235.95C3829.94 1229.35 3819.38 1224.51 3808.16 1221.43C3797.16 1218.35 3786.49 1216.81 3776.15 1216.81C3762.29 1216.81 3750.85 1218.68 3741.83 1222.42C3732.81 1226.16 3726.1 1231.22 3721.7 1237.6C3717.52 1243.76 3715.43 1250.8 3715.43 1258.72C3715.43 1267.74 3717.96 1275 3723.02 1280.5C3728.3 1286 3735.12 1290.29 3743.48 1293.37C3752.06 1296.45 3761.41 1299.2 3771.53 1301.62C3781.65 1304.04 3791.66 1306.68 3801.56 1309.54C3811.68 1312.4 3820.92 1316.14 3829.28 1320.76C3837.86 1325.16 3844.68 1331.1 3849.74 1338.58C3855.02 1346.06 3857.66 1355.85 3857.66 1367.95C3857.66 1379.17 3854.58 1389.62 3848.42 1399.3C3842.26 1408.76 3832.8 1416.46 3820.04 1422.4C3807.5 1428.12 3791.33 1430.98 3771.53 1430.98ZM4073.14 1430.98C4058.18 1430.98 4044.87 1428.56 4033.21 1423.72C4021.55 1418.66 4012.31 1411.73 4005.49 1402.93C3998.89 1394.13 3995.59 1383.9 3995.59 1372.24C3995.59 1362.34 3997.79 1353.32 4002.19 1345.18C4006.59 1336.82 4013.63 1328.68 4023.31 1320.76C4033.21 1312.62 4046.3 1304.15 4062.58 1295.35C4076.44 1287.65 4087.22 1281.05 4094.92 1275.55C4102.84 1269.83 4108.45 1264.44 4111.75 1259.38C4115.05 1254.1 4116.7 1248.49 4116.7 1242.55C4116.7 1233.97 4113.73 1227.04 4107.79 1221.76C4102.07 1216.48 4093.82 1213.84 4083.04 1213.84C4071.38 1213.84 4062.36 1216.81 4055.98 1222.75C4049.6 1228.47 4046.41 1235.95 4046.41 1245.19C4046.41 1249.81 4047.07 1254.21 4048.39 1258.39C4049.93 1262.57 4052.68 1267.19 4056.64 1272.25C4060.82 1277.31 4066.54 1283.69 4073.8 1291.39L4195.9 1417.12L4182.37 1432.63L4054.99 1301.62C4047.29 1293.48 4041.13 1286.44 4036.51 1280.5C4032.11 1274.34 4029.03 1268.51 4027.27 1263.01C4025.51 1257.51 4024.63 1251.68 4024.63 1245.52C4024.63 1235.62 4026.94 1227.04 4031.56 1219.78C4036.4 1212.3 4043.22 1206.58 4052.02 1202.62C4060.82 1198.44 4071.16 1196.35 4083.04 1196.35C4093.82 1196.35 4103.17 1198.22 4111.09 1201.96C4119.23 1205.48 4125.5 1210.65 4129.9 1217.47C4134.52 1224.29 4136.83 1232.54 4136.83 1242.22C4136.83 1250.58 4134.74 1258.39 4130.56 1265.65C4126.6 1272.91 4120 1280.06 4110.76 1287.1C4101.52 1293.92 4088.98 1301.62 4073.14 1310.2C4059.28 1317.9 4048.28 1324.94 4040.14 1331.32C4032.22 1337.7 4026.61 1343.97 4023.31 1350.13C4020.01 1356.07 4018.36 1362.67 4018.36 1369.93C4018.36 1378.29 4020.67 1385.66 4025.29 1392.04C4030.13 1398.2 4036.73 1403.04 4045.09 1406.56C4053.67 1409.86 4063.46 1411.51 4074.46 1411.51C4089.86 1411.51 4103.61 1408.32 4115.71 1401.94C4127.81 1395.56 4137.93 1385.88 4146.07 1372.9C4154.43 1359.92 4160.48 1343.64 4164.22 1324.06L4183.03 1330C4178.85 1352 4171.7 1370.48 4161.58 1385.44C4151.46 1400.4 4138.92 1411.73 4123.96 1419.43C4109 1427.13 4092.06 1430.98 4073.14 1430.98ZM4343.95 1429V1198H4368.37V1429H4343.95ZM4416.47 1429L4522.07 1198H4546.16L4651.76 1429H4626.02L4529 1212.19H4538.9L4441.88 1429H4416.47ZM4458.05 1367.29L4465.31 1347.49H4599.62L4606.88 1367.29H4458.05Z" fill="#141C4D"/>
</svg>
